Patient4_TMGait_0pt5_01_left_03_GRF.mot
version=1
nRows=60
nColumns=19
inDegrees=no
endheader
time	F1x	F1y	F1z	M1x	M1y	M1z	F2x	F2y	F2z	M2x	M2y	M2z	EC1x	EC1y	EC1z	EC2x	EC2y	EC2z
3.82	0	0	0	0	0	0	-54.5257	773.9886	-67.5789	283.6102	77.0068	660.4128	-0.0462	0.0182	-0.0073	-0.0462	0.0165	0.9715
3.8339	0	0	0	0	0	0	-54.3035	803.4157	-68.2273	294.5572	77.5763	682.7389	-0.0462	0.0182	-0.0073	-0.0462	0.0165	0.9715
3.8479	0	0	0	0	0	0	-52.0303	812.9947	-66.7144	298.3048	75.5646	687.2814	-0.0462	0.0182	-0.0073	-0.0462	0.0165	0.9715
3.8618	0	0	0	0	0	0	-48.1374	807.6109	-63.6133	296.6397	71.5998	678.2855	-0.0462	0.0182	-0.0073	-0.0462	0.0165	0.9715
3.8757	0	0	0	0	0	0	-43.1539	793.0159	-59.609	291.6577	66.4418	660.779	-0.0462	0.0182	-0.0073	-0.0462	0.0165	0.9715
3.8896	0	0	0	0	0	0	-37.619	774.8085	-55.3849	285.3927	60.8548	639.6842	-0.0462	0.0182	-0.0073	-0.0462	0.0165	0.9715
3.9036	0	0	0	0	0	0	-32.0085	757.6378	-51.5273	279.5281	55.5003	619.1208	-0.0462	0.0182	-0.0073	-0.0462	0.0165	0.9715
3.9175	0	0	0	0	0	0	-26.6877	744.7195	-48.4601	275.2223	50.8643	601.9791	-0.0462	0.0182	-0.0073	-0.0462	0.0165	0.9715
3.9314	0	0	0	0	0	0	-21.8921	737.6776	-46.4152	273.0547	47.2258	589.7766	-0.0462	0.0182	-0.0073	-0.0462	0.0165	0.9715
3.9454	0	0	0	0	0	0	-17.7328	736.668	-45.4365	273.0722	44.662	582.7593	-0.0462	0.0182	-0.0073	-0.0462	0.0165	0.9715
3.9593	0	0	0	0	0	0	-14.2197	740.7029	-45.4108	274.9089	43.0832	580.178	-0.0462	0.0182	-0.0073	-0.0462	0.0165	0.9715
3.9732	0	0	0	0	0	0	-11.2929	748.0818	-46.1165	277.9427	42.2845	580.6559	-0.0462	0.0182	-0.0073	-0.0462	0.0165	0.9715
3.9871	0	0	0	0	0	0	-8.8542	756.8401	-47.2776	281.4575	42.0031	582.5724	-0.0462	0.0182	-0.0073	-0.0462	0.0165	0.9715
4.0011	0	0	0	0	0	0	-6.7931	765.1417	-48.6162	284.7846	41.9705	584.3974	-0.0462	0.0182	-0.0073	-0.0462	0.0165	0.9715
4.015	0	0	0	0	0	0	-5.0029	771.5655	-49.8951	287.4048	41.9536	584.9358	-0.0462	0.0182	-0.0073	-0.0462	0.0165	0.9715
4.0289	0	0	0	0	0	0	-3.3891	775.2607	-50.9472	289.0028	41.7805	583.4595	-0.0462	0.0182	-0.0073	-0.0462	0.0165	0.9715
4.0429	0	0	0	0	0	0	-1.8716	775.968	-51.6875	289.4739	41.3517	579.7285	-0.0462	0.0182	-0.0073	-0.0462	0.0165	0.9715
4.0568	0	0	0	0	0	0	-0.38446	773.9241	-52.1102	288.889	40.6369	573.9163	-0.0462	0.0182	-0.0073	-0.0462	0.0165	0.9715
4.0707	0	0	0	0	0	0	1.1224	769.6832	-52.2718	287.4304	39.6633	566.4693	-0.0462	0.0182	-0.0073	-0.0462	0.0165	0.9715
4.0846	0	0	0	0	0	0	2.6795	763.8959	-52.266	285.3135	38.4977	557.9335	-0.0462	0.0182	-0.0073	-0.0462	0.0165	0.9715
4.0986	0	0	0	0	0	0	4.2915	757.0951	-52.1945	282.7116	37.2273	548.7873	-0.0462	0.0182	-0.0073	-0.0462	0.0165	0.9715
4.1125	0	0	0	0	0	0	5.9323	749.5327	-52.1394	279.7003	35.9409	539.3129	-0.0462	0.0182	-0.0073	-0.0462	0.0165	0.9715
4.1264	16.0921	16.43	0.47165	-6.1763	6.2338	11.511	7.5438	741.1004	-52.1397	276.2325	34.7117	529.5307	-0.0462	0.0182	-0.0073	-0.0462	0.0165	0.9715
4.1404	18.0171	39.5058	0.36473	-15.0509	6.991	31.9633	9.0424	731.3482	-52.1784	272.1481	33.5849	519.2048	-0.0462	0.0182	-0.0073	-0.0462	0.0165	0.9715
4.1543	18.2819	69.0394	0.6045	-26.3864	6.7843	58.2922	10.3341	719.5889	-52.1807	267.2142	32.5696	507.9115	-0.0462	0.0182	-0.0073	-0.0462	0.0165	0.9715
4.1682	16.5905	103.8578	1.3189	-39.724	5.393	89.4662	11.3354	705.0602	-52.0263	261.1837	31.6381	495.149	-0.0462	0.0182	-0.0073	-0.0462	0.0165	0.9715
4.1821	12.9603	142.1191	2.6019	-54.3512	2.7501	123.8242	11.9968	687.1001	-51.573	253.857	30.732	480.4579	-0.0462	0.0182	-0.0073	-0.0462	0.0165	0.9715
4.1961	7.7381	181.5944	4.4866	-69.4125	-1.0281	159.3207	12.3205	665.2925	-50.6862	245.1306	29.7742	463.5226	-0.0462	0.0182	-0.0073	-0.0462	0.0165	0.9715
4.21	1.5246	220.0683	6.9232	-84.0642	-5.6525	193.8839	12.3664	639.5489	-49.2682	235.0203	28.6843	444.2316	-0.0462	0.0182	-0.0073	-0.0462	0.0165	0.9715
4.2239	-4.96	255.7746	9.7742	-97.642	-10.7107	225.8145	12.2417	610.1099	-47.2783	223.6558	27.3958	422.6856	-0.0462	0.0182	-0.0073	-0.0462	0.0165	0.9715
4.2379	-11.0204	287.7419	12.8375	-109.7906	-15.7447	254.1096	12.0753	577.4692	-44.7407	211.2465	25.8693	399.1555	-0.0462	0.0182	-0.0073	-0.0462	0.0165	0.9715
4.2518	-16.0982	315.9387	15.8933	-120.5157	-20.3384	278.6055	11.9822	542.2454	-41.7379	198.0313	24.1014	374.0051	-0.0462	0.0182	-0.0073	-0.0462	0.0165	0.9715
4.2657	-19.8355	341.1926	18.7606	-130.1474	-24.1918	299.9151	12.027	505.041	-38.3925	184.2256	22.1275	347.6051	-0.0462	0.0182	-0.0073	-0.0462	0.0165	0.9715
4.2796	-22.0897	364.9351	21.3419	-139.2383	-27.1669	319.2082	12.1998	466.3356	-34.8451	169.9845	20.018	320.2647	-0.0462	0.0182	-0.0073	-0.0462	0.0165	0.9715
4.2936	-22.9131	388.8665	23.6471	-148.4324	-29.2975	337.916	12.4084	426.4445	-31.2348	155.3914	17.8704	292.2039	-0.0462	0.0182	-0.0073	-0.0462	0.0165	0.9715
4.3075	-22.511	414.6218	25.7881	-158.3371	-30.7666	357.4388	12.4937	385.5516	-27.6846	140.4757	15.7969	263.5699	-0.0462	0.0182	-0.0073	-0.0462	0.0165	0.9715
4.3214	-21.1885	443.4984	27.9486	-169.4215	-31.8565	378.9069	12.2628	343.8043	-24.2917	125.2537	13.9086	234.4935	-0.0462	0.0182	-0.0073	-0.0462	0.0165	0.9715
4.3354	-19.2962	476.2719	30.3348	-181.9499	-32.8844	403.022	11.5356	301.437	-21.1233	109.7797	12.298	205.1627	-0.0462	0.0182	-0.0073	-0.0462	0.0165	0.9715
4.3493	-17.1799	513.1005	33.1217	-195.9501	-34.1361	429.9768	10.1931	258.8824	-18.2165	94.1904	11.0225	175.8892	-0.0462	0.0182	-0.0073	-0.0462	0.0165	0.9715
4.3632	-15.1395	553.5046	36.4074	-211.2102	-35.812	459.443	8.2155	216.8328	-15.5817	78.7302	10.0934	147.1437	-0.0462	0.0182	-0.0073	-0.0462	0.0165	0.9715
4.3771	-13.4012	596.4087	40.1887	-227.2977	-37.9965	490.6111	5.6995	176.2251	-13.2083	63.7452	9.472	119.5439	-0.0462	0.0182	-0.0073	-0.0462	0.0165	0.9715
4.3911	-12.1036	640.2371	44.36	-243.5985	-40.6535	522.2753	2.8477	138.1502	-11.0724	49.6481	9.0782	93.7954	-0.0462	0.0182	-0.0073	-0.0462	0.0165	0.9715
4.405	-11.2971	683.0641	48.7345	-259.3742	-43.6452	552.9579	-0.068391	103.7073	-9.1456	36.8608	8.8069	70.5989	-0.0462	0.0182	-0.0073	-0.0462	0.0165	0.9715
4.4189	-10.953	722.812	53.0795	-273.8381	-46.7655	581.0698	-2.7627	73.841	-7.4032	25.7507	8.5525	50.5481	-0.0462	0.0182	-0.0073	-0.0462	0.0165	0.9715
4.4329	-10.9789	757.481	57.1548	-286.2422	-49.7794	605.0918	-4.99	49.2006	-5.8314	16.5745	8.2308	34.0408	-0.0462	0.0182	-0.0073	-0.0462	0.0165	0.9715
4.4468	-11.2373	785.3844	60.7468	-295.9665	-52.4579	623.7542	-6.5892	30.0503	-4.4302	9.4426	7.7955	21.2244	-0.0462	0.0182	-0.0073	-0.0462	0.0165	0.9715
4.4607	-11.5666	805.3523	63.692	-302.5951	-54.6073	636.1896	-7.5039	16.2442	-3.2112	4.3081	7.2427	11.9804	-0.0462	0.0182	-0.0073	-0.0462	0.0165	0.9715
4.4746	-11.8021	816.8761	65.8887	-305.97	-56.0862	642.0371	0	0	0	0	0	0	-0.0462	0.0182	-0.0073	-0.0462	0.0165	0.9715
4.4886	-11.7969	820.1714	67.2982	-306.2133	-56.8143	641.4827	0	0	0	0	0	0	-0.0462	0.0182	-0.0073	-0.0462	0.0165	0.9715
4.5025	-11.4369	816.1501	67.9367	-303.7139	-56.771	635.2301	0	0	0	0	0	0	-0.0462	0.0182	-0.0073	-0.0462	0.0165	0.9715
4.5164	-10.6506	806.3047	67.8637	-299.0809	-55.9876	624.407	0	0	0	0	0	0	-0.0462	0.0182	-0.0073	-0.0462	0.0165	0.9715
4.5304	-9.4096	792.5204	67.1673	-293.0691	-54.5345	610.4208	0	0	0	0	0	0	-0.0462	0.0182	-0.0073	-0.0462	0.0165	0.9715
4.5443	-7.7229	776.8417	65.9501	-286.4871	-52.5059	594.7827	0	0	0	0	0	0	-0.0462	0.0182	-0.0073	-0.0462	0.0165	0.9715
4.5582	-5.6258	761.2283	64.3189	-280.1022	-50.0066	578.9306	0	0	0	0	0	0	-0.0462	0.0182	-0.0073	-0.0462	0.0165	0.9715
4.5721	-3.1679	747.3353	62.3779	-274.5537	-47.1405	564.0723	0	0	0	0	0	0	-0.0462	0.0182	-0.0073	-0.0462	0.0165	0.9715
4.5861	-0.40312	736.3494	60.2273	-270.289	-44.0066	551.0752	0	0	0	0	0	0	-0.0462	0.0182	-0.0073	-0.0462	0.0165	0.9715
4.6	2.6152	728.9034	57.9645	-267.5309	-40.6975	540.4129	0	0	0	0	0	0	-0.0462	0.0182	-0.0073	-0.0462	0.0165	0.9715
4.6139	5.835	725.0769	55.6868	-266.2777	-37.3032	532.1754	0	0	0	0	0	0	-0.0462	0.0182	-0.0073	-0.0462	0.0165	0.9715
4.6279	9.2015	724.478	53.4934	-266.3366	-33.9142	526.1339	0	0	0	0	0	0	-0.0462	0.0182	-0.0073	-0.0462	0.0165	0.9715
4.6418	12.6526	726.3851	51.4847	-267.3806	-30.6252	521.8447	0	0	0	0	0	0	-0.0462	0.0182	-0.0073	-0.0462	0.0165	0.9715
